<?xml version="1.0" standalone="no"?>
<!DOCTYPE svg PUBLIC "-//W3C//DTD SVG 20010904//EN"
 "http://www.w3.org/TR/2001/REC-SVG-20010904/DTD/svg10.dtd">
<svg version="1.0" xmlns="http://www.w3.org/2000/svg"
 width="3840.000000pt" height="2160.000000pt" viewBox="0 0 3840.000000 2160.000000"
 preserveAspectRatio="xMidYMid meet">

<g transform="translate(0.000000,2160.000000) scale(0.100000,-0.100000)"
fill="#000000" stroke="none">
<path d="M18949 21067 c-2 -3 -67 -7 -144 -10 -898 -40 -1874 -312 -2690 -749
-1528 -820 -2686 -2201 -3248 -3878 -55 -163 -140 -451 -134 -456 8 -9 112 38
172 77 503 332 1062 564 1647 683 42 9 94 18 115 22 21 3 45 7 53 9 8 2 38 7
65 11 28 3 58 8 67 9 9 2 48 7 85 10 37 4 77 9 88 11 130 25 761 24 916 -1 13
-2 48 -6 77 -9 72 -8 108 -14 247 -37 66 -11 131 -17 144 -14 14 4 93 75 175
159 557 564 1235 920 2001 1050 214 36 295 41 615 41 213 -1 318 -5 415 -18
656 -88 1230 -327 1762 -734 68 -51 132 -93 143 -93 26 0 194 -153 317 -289
257 -284 448 -561 616 -896 176 -352 296 -724 361 -1118 41 -247 48 -333 53
-724 5 -372 5 -373 27 -373 11 0 71 -5 131 -10 434 -41 825 -229 1132 -541
112 -115 162 -176 243 -299 453 -689 420 -1610 -80 -2270 -274 -361 -663 -606
-1116 -702 l-109 -23 -1964 -3 c-1285 -1 -1967 1 -1971 8 -4 6 -686 10 -1955
13 -1073 1 -1959 5 -1970 9 -11 3 -40 9 -65 12 -25 3 -60 10 -77 15 -18 5 -33
8 -33 6 0 -2 -18 2 -40 10 -22 8 -44 14 -48 15 -9 0 -131 39 -157 50 -11 4
-42 18 -69 30 l-50 22 -106 -109 c-58 -59 -277 -286 -485 -503 -209 -217 -438
-456 -510 -530 -72 -74 -189 -196 -260 -270 -72 -74 -189 -196 -260 -270 -508
-527 -520 -539 -523 -553 -5 -24 341 -265 562 -392 255 -146 559 -283 835
-375 157 -53 398 -121 474 -134 15 -3 35 -7 45 -10 9 -3 34 -7 56 -11 21 -3
41 -7 45 -9 3 -2 28 -7 55 -10 27 -4 52 -9 55 -10 3 -2 31 -7 62 -10 31 -4 65
-8 75 -10 11 -2 48 -7 84 -11 36 -3 81 -8 100 -10 19 -2 73 -7 120 -11 47 -4
969 -8 2050 -8 1329 -1 1971 -5 1985 -12 23 -12 3899 -12 4055 0 646 50 1223
207 1775 483 497 249 898 544 1300 954 385 394 686 825 929 1329 293 611 471
1324 493 1982 4 125 9 175 17 171 6 -4 5 1 -3 10 -9 11 -10 17 -2 17 6 0 11
18 11 45 0 25 -4 45 -8 45 -5 0 -9 51 -10 113 -16 794 -266 1685 -673 2393
-334 582 -790 1100 -1314 1494 l-130 98 -29 108 c-137 513 -390 1119 -675
1617 -310 540 -650 985 -1104 1442 -187 189 -199 199 -213 181 -14 -19 -14
-19 -14 1 0 24 -92 110 -285 268 -834 684 -1825 1153 -2869 1360 -263 52 -432
74 -826 110 -78 7 -624 17 -631 12z"/>
<path d="M9455 4149 c-342 -35 -651 -181 -900 -423 -110 -109 -175 -185 -243
-286 -193 -291 -283 -648 -253 -1008 32 -385 171 -696 430 -965 174 -180 322
-287 514 -369 197 -85 367 -118 615 -119 195 -1 306 15 460 67 515 171 874
612 942 1158 13 101 10 462 -4 485 -5 8 -194 11 -707 11 l-699 0 0 -215 0
-215 495 0 495 0 0 -32 c0 -105 -80 -314 -164 -432 -155 -217 -464 -375 -766
-393 -492 -28 -952 293 -1109 773 -42 130 -55 222 -55 384 0 304 94 552 295
780 249 283 593 411 965 359 193 -27 407 -127 545 -256 l46 -43 146 154 147
154 -70 65 c-176 167 -431 295 -691 347 -113 22 -315 31 -434 19z"/>
<path d="M17690 2540 l0 -1500 215 0 215 0 0 1500 0 1500 -215 0 -215 0 0
-1500z"/>
<path d="M22165 3850 c-254 -46 -482 -159 -669 -332 -367 -338 -528 -840 -440
-1378 71 -430 353 -820 734 -1014 218 -111 380 -148 648 -146 288 1 531 74
760 227 82 55 282 238 282 259 0 5 -51 62 -113 128 l-112 118 -85 -84 c-198
-198 -441 -304 -715 -313 -70 -2 -156 2 -206 10 -447 70 -800 447 -859 917
-49 395 58 745 305 994 223 225 518 327 849 293 111 -12 186 -32 285 -80 111
-52 191 -111 273 -197 l67 -71 116 121 116 122 -83 83 c-185 186 -401 300
-657 348 -116 21 -365 19 -496 -5z"/>
<path d="M23790 2425 l0 -1385 170 0 170 0 0 1385 0 1385 -170 0 -170 0 0
-1385z"/>
<path d="M30001 3240 c2 -313 1 -570 -2 -570 -4 0 -18 17 -31 38 -176 264
-604 363 -925 213 -230 -108 -414 -339 -499 -626 -22 -77 -27 -115 -31 -258
-6 -186 4 -272 44 -402 82 -259 267 -483 484 -585 117 -55 214 -73 363 -68
114 4 142 8 219 35 145 51 269 139 338 240 16 23 34 43 39 43 6 0 10 -54 10
-130 l0 -130 165 0 165 0 0 1385 0 1385 -171 0 -171 0 3 -570z m-458 -575
c197 -42 360 -199 434 -420 26 -75 27 -92 28 -260 0 -177 -1 -182 -31 -268
-42 -115 -86 -188 -160 -262 -106 -106 -228 -155 -384 -155 -223 0 -402 114
-505 323 -64 131 -78 195 -78 362 -1 166 15 242 74 362 121 245 369 372 622
318z"/>
<path d="M12065 3014 c-377 -55 -678 -286 -806 -619 -56 -143 -71 -247 -66
-435 6 -224 36 -332 142 -515 56 -98 225 -265 331 -328 97 -57 241 -110 346
-127 111 -18 322 -8 418 20 356 103 606 362 702 728 19 75 22 111 22 262 0
158 -3 185 -27 275 -100 372 -381 641 -752 721 -71 15 -255 26 -310 18z m224
-409 c209 -50 369 -216 427 -445 25 -100 16 -291 -19 -390 -85 -238 -290 -392
-522 -392 -139 0 -237 37 -344 128 -158 134 -228 306 -218 529 9 181 59 298
181 421 138 139 313 191 495 149z"/>
<path d="M14165 3005 c-310 -59 -567 -247 -704 -514 -86 -168 -120 -328 -115
-535 11 -388 214 -711 549 -876 159 -78 237 -95 440 -95 197 1 265 15 419 88
208 99 368 261 466 470 147 313 126 718 -50 1005 -115 186 -311 345 -510 414
-153 53 -351 70 -495 43z m284 -400 c204 -48 380 -235 426 -451 93 -440 -224
-831 -627 -772 -209 31 -410 226 -463 449 -19 84 -19 258 0 334 82 318 371
509 664 440z"/>
<path d="M16266 3004 c-205 -46 -379 -153 -521 -323 -162 -193 -245 -423 -245
-681 0 -251 75 -469 225 -657 192 -240 438 -362 729 -363 190 0 352 66 475
194 19 20 39 36 43 36 14 0 9 -261 -7 -333 -33 -158 -130 -296 -252 -360 -92
-48 -138 -58 -253 -58 -116 1 -194 22 -277 78 -70 46 -153 139 -193 216 -18
34 -34 63 -35 65 -1 1 -76 -30 -166 -69 -90 -39 -174 -75 -187 -80 l-23 -9 45
-88 c121 -234 348 -423 586 -489 95 -26 396 -26 495 1 145 38 304 128 407 231
132 130 240 369 268 587 6 52 10 451 10 1065 l0 983 -205 0 -205 0 0 -80 c0
-44 -4 -80 -8 -80 -5 0 -31 22 -59 49 -60 58 -157 114 -256 148 -93 33 -285
41 -391 17z m333 -405 c137 -31 269 -144 339 -289 158 -329 46 -741 -240 -886
-109 -55 -257 -65 -378 -24 -176 59 -324 225 -375 421 -23 86 -24 253 -1 339
54 211 213 385 397 434 63 17 195 20 258 5z"/>
<path d="M19135 3014 c-66 -10 -183 -44 -239 -69 -255 -113 -454 -356 -533
-651 -24 -91 -26 -115 -26 -289 0 -173 2 -199 25 -286 101 -376 379 -647 741
-724 90 -20 305 -19 396 0 214 45 431 187 578 377 l43 57 -52 39 c-29 21 -103
73 -164 115 l-112 77 -25 -38 c-57 -85 -167 -170 -276 -214 -48 -19 -75 -22
-191 -23 l-135 0 -78 37 c-52 25 -100 58 -141 98 -65 62 -125 155 -110 170 9
9 1271 550 1283 550 3 0 12 4 19 9 27 17 -93 284 -181 401 -180 241 -392 356
-672 365 -66 2 -133 1 -150 -1z m286 -413 c81 -31 143 -75 178 -128 17 -26 31
-52 31 -58 0 -9 -853 -385 -874 -385 -11 0 -6 105 9 169 48 200 228 381 420
420 70 14 170 6 236 -18z"/>
<path d="M25315 2993 c-234 -14 -481 -129 -629 -293 -104 -117 -178 -254 -224
-420 -25 -89 -27 -109 -27 -295 0 -174 3 -210 22 -280 82 -299 245 -506 498
-632 130 -65 254 -93 416 -93 356 0 665 193 826 515 74 147 105 288 106 480 0
155 -13 253 -51 365 -107 323 -345 546 -672 630 -49 13 -204 26 -265 23z m246
-355 c140 -52 259 -164 330 -313 58 -121 73 -189 72 -340 0 -156 -15 -222 -78
-351 -166 -340 -571 -440 -868 -215 -100 75 -200 237 -233 376 -24 103 -22
298 5 398 96 365 444 565 772 445z"/>
<path d="M26592 2248 c4 -747 2 -715 65 -868 81 -196 213 -324 393 -382 90
-28 268 -35 370 -14 150 31 313 135 400 253 25 34 48 62 53 62 4 1 7 -57 7
-129 l0 -130 165 0 165 0 0 945 0 945 -169 0 -170 0 -4 -587 c-3 -636 -2 -620
-60 -747 -56 -121 -136 -209 -237 -259 -58 -29 -75 -32 -172 -36 -130 -4 -220
19 -295 76 -61 47 -77 65 -113 138 -57 113 -60 155 -60 816 l0 599 -170 0
-171 0 3 -682z"/>
</g>
</svg>
