<?xml version="1.0" standalone="no"?>
<!DOCTYPE svg PUBLIC "-//W3C//DTD SVG 20010904//EN"
 "http://www.w3.org/TR/2001/REC-SVG-20010904/DTD/svg10.dtd">
<svg version="1.0" xmlns="http://www.w3.org/2000/svg"
 width="900.000000pt" height="900.000000pt" viewBox="0 0 900.000000 900.000000"
 preserveAspectRatio="xMidYMid meet">

<g transform="translate(0.000000,900.000000) scale(0.100000,-0.100000)"
fill="#000000" stroke="none">
<path d="M5480 7295 c-201 -45 -387 -137 -553 -275 -203 -167 -366 -440 -422
-706 -17 -81 -23 -273 -10 -295 6 -8 30 -10 89 -5 417 34 794 341 959 781 50
133 68 223 74 373 l6 142 -44 -1 c-24 -1 -69 -7 -99 -14z"/>
<path d="M5405 5949 c-110 -11 -253 -50 -425 -116 -299 -115 -363 -134 -443
-134 -83 0 -149 19 -408 119 -255 97 -337 116 -509 116 -162 0 -269 -17 -410
-67 -458 -160 -794 -543 -925 -1055 -50 -196 -59 -279 -59 -552 0 -190 4 -284
17 -370 84 -560 282 -1077 575 -1505 291 -424 501 -621 722 -680 72 -19 200
-19 292 0 40 9 145 44 233 79 296 118 347 130 550 129 179 0 264 -20 470 -106
153 -64 199 -80 280 -97 78 -17 226 -17 295 -1 78 19 205 80 276 134 202 153
509 575 685 942 57 118 132 305 153 380 5 17 -5 26 -67 57 -161 80 -365 258
-465 404 -90 134 -156 293 -193 469 -20 91 -17 392 4 483 43 185 114 340 221
483 73 96 205 226 296 290 33 23 60 45 60 49 0 12 -129 164 -173 203 -229 208
-495 320 -825 347 -64 5 -124 9 -132 8 -8 0 -51 -4 -95 -9z"/>
</g>
</svg>
